<svg width="24" height="24" viewBox="0 0 24 24" fill="none" xmlns="http://www.w3.org/2000/svg">
<path d="M17.9998 8.94095C18.0037 8.75753 17.9523 8.5774 17.8526 8.42562C17.753 8.27384 17.61 8.15795 17.4437 8.09405C17.2774 8.03015 17.096 8.02142 16.9247 8.06908C16.7534 8.11674 16.6008 8.21841 16.4879 8.35997L12.0138 13.7612L7.54126 8.35997C7.47167 8.26205 7.38332 8.18004 7.28167 8.11908C7.18001 8.05813 7.06725 8.01953 6.95051 8.00572C6.83376 7.99191 6.71554 8.00317 6.6032 8.03881C6.49086 8.07445 6.38681 8.13369 6.29764 8.21282C6.20846 8.29196 6.13612 8.38929 6.085 8.49871C6.03388 8.60813 6.00517 8.72729 6.00064 8.84872C5.99611 8.97016 6.0158 9.09125 6.05862 9.20442C6.10144 9.31759 6.16638 9.4204 6.2494 9.50641L11.3654 15.6903C11.4455 15.7874 11.545 15.8654 11.657 15.9188C11.7691 15.9723 11.8911 16 12.0146 16C12.138 16 12.26 15.9723 12.3721 15.9188C12.4842 15.8654 12.5838 15.7874 12.6639 15.6903L17.7848 9.50641C17.919 9.35019 17.9952 9.14983 18 8.94095L17.9998 8.94095Z" fill="#525252"/>
</svg>
