<svg width="8" height="12" viewBox="0 0 8 12" fill="none" xmlns="http://www.w3.org/2000/svg">
<path d="M7.05905 11.9998C7.24248 12.0037 7.4226 11.9523 7.57438 11.8526C7.72616 11.753 7.84205 11.61 7.90595 11.4437C7.96985 11.2774 7.97858 11.096 7.93092 10.9247C7.88326 10.7534 7.78159 10.6008 7.64003 10.4879L2.23884 6.0138L7.64003 1.54126C7.73795 1.47167 7.81996 1.38332 7.88092 1.28167C7.94187 1.18001 7.98047 1.06725 7.99428 0.950509C8.00809 0.833764 7.99683 0.715543 7.96119 0.603203C7.92555 0.490863 7.86631 0.386815 7.78718 0.297637C7.70804 0.208461 7.61071 0.136123 7.50129 0.0850013C7.39187 0.0338796 7.27271 0.00516639 7.15128 0.000636431C7.02984 -0.00389449 6.90875 0.0158017 6.79558 0.0586188C6.68241 0.101437 6.5796 0.166385 6.49359 0.2494L0.309722 5.36536C0.212612 5.44549 0.134632 5.54495 0.0811606 5.65704C0.0276895 5.76914 1.07917e-08 5.89114 0 6.01459C-1.07917e-08 6.13803 0.0276894 6.26004 0.0811605 6.37213C0.134632 6.48422 0.212612 6.58378 0.309722 6.66391L6.49359 11.7848C6.64981 11.919 6.85017 11.995 7.05905 11.9998Z" fill="#141414"/>
</svg>
