<svg width="8" height="12" viewBox="0 0 8 12" fill="none" xmlns="http://www.w3.org/2000/svg">
<path d="M0.940948 0.000206632C0.757525 -0.00369422 0.577404 0.0477192 0.425624 0.147378C0.273844 0.247037 0.157947 0.390016 0.0940481 0.556308C0.030149 0.722601 0.021422 0.903987 0.0690802 1.0753C0.116738 1.24661 0.218413 1.39923 0.35997 1.51209L5.76116 5.9862L0.35997 10.4587C0.262049 10.5283 0.180041 10.6167 0.119084 10.7183C0.0581275 10.82 0.0195343 10.9327 0.00572114 11.0495C-0.00809202 11.1662 0.00317275 11.2845 0.0388099 11.3968C0.074447 11.5091 0.133688 11.6132 0.212825 11.7024C0.291962 11.7915 0.389288 11.8639 0.49871 11.915C0.608131 11.9661 0.727291 11.9948 0.848725 11.9994C0.97016 12.0039 1.09125 11.9842 1.20442 11.9414C1.31759 11.8986 1.4204 11.8336 1.50641 11.7506L7.69028 6.63464C7.78739 6.55451 7.86537 6.45505 7.91884 6.34296C7.97231 6.23086 8 6.10886 8 5.98541C8 5.86197 7.97231 5.73996 7.91884 5.62787C7.86537 5.51578 7.78739 5.41622 7.69028 5.33609L1.50641 0.215205C1.35019 0.0810394 1.14983 0.00476303 0.940948 9.74702e-06V0.000206632Z" fill="#525252"/>
</svg>
